<svg width="35" height="42" viewBox="0 0 35 42" fill="none" xmlns="http://www.w3.org/2000/svg">
<path d="M17.2212 9.94706C16.9297 7.60168 18.0941 5.11253 19.3894 3.58367C20.8606 1.85187 23.4227 0.525363 25.4616 0.438477C25.7243 2.88517 24.7626 5.28687 23.3494 7.04923C21.8803 8.78131 19.5208 10.1211 17.2212 9.94706Z" fill="white"/>
<path d="M34.0516 30.6952C34.0225 30.8401 33.2079 33.6799 31.1843 36.5472C29.4797 39.0819 27.7188 41.5571 24.894 41.5999C22.156 41.6579 21.2391 39.9839 18.0942 39.9839C14.9354 39.9839 13.9451 41.5574 11.3232 41.6579C8.62972 41.7601 6.59283 38.9511 4.83019 36.4467C1.32189 31.3209 -1.40217 22.0031 2.25274 15.6686C4.01566 12.5539 7.26104 10.5578 10.7133 10.4998C13.3912 10.4573 15.8954 12.3207 17.542 12.3207C19.1583 12.3207 22.2435 10.0772 25.4178 10.4132C26.7441 10.4573 30.5283 10.9518 32.9744 14.5042C32.7851 14.6203 28.4756 17.155 28.52 22.3662C28.5777 28.5983 33.98 30.6657 34.0516 30.6952Z" fill="white"/>
</svg>
