<svg width="26" height="29" viewBox="0 0 26 29" fill="none" xmlns="http://www.w3.org/2000/svg">
<path d="M8.26305 16.0795H6.0298C5.66131 16.0795 5.35982 15.778 5.35982 15.4095V13.1762C5.35982 12.8077 5.66131 12.5062 6.0298 12.5062H8.26305C8.63154 12.5062 8.93303 12.8077 8.93303 13.1762V15.4095C8.93303 15.778 8.63154 16.0795 8.26305 16.0795ZM14.2928 15.4095V13.1762C14.2928 12.8077 13.9914 12.5062 13.6229 12.5062H11.3896C11.0211 12.5062 10.7196 12.8077 10.7196 13.1762V15.4095C10.7196 15.778 11.0211 16.0795 11.3896 16.0795H13.6229C13.9914 16.0795 14.2928 15.778 14.2928 15.4095ZM19.6527 15.4095V13.1762C19.6527 12.8077 19.3512 12.5062 18.9827 12.5062H16.7494C16.3809 12.5062 16.0795 12.8077 16.0795 13.1762V15.4095C16.0795 15.778 16.3809 16.0795 16.7494 16.0795H18.9827C19.3512 16.0795 19.6527 15.778 19.6527 15.4095ZM14.2928 20.7693V18.536C14.2928 18.1676 13.9914 17.8661 13.6229 17.8661H11.3896C11.0211 17.8661 10.7196 18.1676 10.7196 18.536V20.7693C10.7196 21.1378 11.0211 21.4393 11.3896 21.4393H13.6229C13.9914 21.4393 14.2928 21.1378 14.2928 20.7693ZM8.93303 20.7693V18.536C8.93303 18.1676 8.63154 17.8661 8.26305 17.8661H6.0298C5.66131 17.8661 5.35982 18.1676 5.35982 18.536V20.7693C5.35982 21.1378 5.66131 21.4393 6.0298 21.4393H8.26305C8.63154 21.4393 8.93303 21.1378 8.93303 20.7693ZM19.6527 20.7693V18.536C19.6527 18.1676 19.3512 17.8661 18.9827 17.8661H16.7494C16.3809 17.8661 16.0795 18.1676 16.0795 18.536V20.7693C16.0795 21.1378 16.3809 21.4393 16.7494 21.4393H18.9827C19.3512 21.4393 19.6527 21.1378 19.6527 20.7693ZM25.0125 6.25312V25.9058C25.0125 27.3853 23.8121 28.5857 22.3326 28.5857H2.67991C1.20038 28.5857 0 27.3853 0 25.9058V6.25312C0 4.77359 1.20038 3.57321 2.67991 3.57321H5.35982V0.669977C5.35982 0.30149 5.66131 0 6.0298 0H8.26305C8.63154 0 8.93303 0.30149 8.93303 0.669977V3.57321H16.0795V0.669977C16.0795 0.30149 16.3809 0 16.7494 0H18.9827C19.3512 0 19.6527 0.30149 19.6527 0.669977V3.57321H22.3326C23.8121 3.57321 25.0125 4.77359 25.0125 6.25312ZM22.3326 25.5708V8.93303H2.67991V25.5708C2.67991 25.7551 2.83065 25.9058 3.0149 25.9058H21.9976C22.1818 25.9058 22.3326 25.7551 22.3326 25.5708Z" fill="#666666" fill-opacity="0.6"/>
</svg>
