<svg width="40" height="45" viewBox="0 0 40 45" fill="none" xmlns="http://www.w3.org/2000/svg">
<path d="M18.4806 21.5293L0.275391 40.6025C1.01605 43.2272 3.74379 44.7547 6.36851 44.0143C6.76615 43.9022 7.14822 43.7401 7.50596 43.5329L27.99 31.8666L18.4806 21.5293Z" fill="#EA4335"/>
<path d="M36.8893 18.2873L28.0308 13.2139L18.0603 21.9637L28.0718 31.8396L36.8624 26.8203C39.2188 25.5869 40.1287 22.6763 38.895 20.3202C38.4402 19.4516 37.731 18.7424 36.8624 18.2875L36.8893 18.2873Z" fill="#FBBC04"/>
<path d="M0.275352 4.40918C0.165258 4.81616 0.110352 5.23588 0.112616 5.65729V39.3544C0.113748 39.7755 0.168371 40.1949 0.275352 40.6022L19.1043 22.0175L0.275352 4.40918Z" fill="#4285F4"/>
<path d="M18.6161 22.5061L28.0307 13.2137L7.57384 1.49277C6.80431 1.04192 5.92894 0.803338 5.03714 0.80079C2.82365 0.796545 0.877616 2.2657 0.275635 4.3957L18.6161 22.5061Z" fill="#34A853"/>
</svg>
